<?xml version="1.0" standalone="no"?>
<!DOCTYPE svg PUBLIC "-//W3C//DTD SVG 20010904//EN"
 "http://www.w3.org/TR/2001/REC-SVG-20010904/DTD/svg10.dtd">
<svg version="1.0" xmlns="http://www.w3.org/2000/svg"
 width="297.000000pt" height="369.000000pt" viewBox="0 0 297.000000 369.000000"
 preserveAspectRatio="xMidYMid meet">
<metadata>
Created by potrace 1.16, written by Peter Selinger 2001-2019
</metadata>
<g transform="translate(0.000000,369.000000) scale(0.100000,-0.100000)"
fill="#000000" stroke="none">
<path d="M630 3316 c-148 -31 -247 -146 -258 -298 l-5 -70 -183 4 -184 3 0
-978 0 -977 693 2 692 3 3 93 3 92 94 0 95 0 0 -93 0 -93 695 0 695 1 0 972 0
973 -695 0 -695 0 0 -90 0 -90 -95 0 -95 0 0 93 0 92 -183 -3 -184 -4 -6 70
c-17 203 -195 340 -387 298z m118 -218 l3 -48 45 0 44 0 0 -50 0 -50 -45 0
-45 0 0 -45 c0 -39 -3 -45 -24 -51 -13 -3 -37 -4 -52 -2 -27 3 -29 6 -32 51
l-3 47 -45 0 -44 0 0 50 0 50 45 0 45 0 0 43 c0 24 3 47 7 51 4 4 28 6 53 4
l45 -3 3 -47z m-378 -400 l0 -213 325 0 325 0 0 213 0 212 165 0 165 0 0 -930
0 -930 -655 0 -655 0 0 930 0 930 165 0 165 0 0 -212z m2560 -718 l0 -930
-650 0 -650 0 0 930 0 930 650 0 650 0 0 -930z"/>
<path d="M1950 2603 l0 -118 325 0 325 0 0 118 0 117 -325 0 -325 0 0 -117z"/>
</g>
</svg>
